<svg width="64" height="64" viewBox="0 0 64 64" fill="none" xmlns="http://www.w3.org/2000/svg">
<path fill-rule="evenodd" clip-rule="evenodd" d="M56.909 42.281C52.6585 51.0369 43.3253 56.6943 33.1321 56.6943C18.7168 56.6943 6.98857 45.617 6.98857 32.0004C6.98857 18.3837 18.7168 7.30586 33.1321 7.30586C34.6613 7.30586 36.1646 7.42759 37.6395 7.66823C33.3936 7.38355 29.2563 7.44371 24.9379 9.06291C20.4461 10.7474 16.6052 13.7004 13.8322 17.6033C10.9925 21.5976 9.49174 26.2977 9.49174 31.1973C9.49174 35.9642 10.5731 39.6918 12.798 42.5956C14.8928 45.3279 18.0243 47.4298 22.6508 49.2082C25.805 50.4216 29.1442 51.0254 32.58 50.9981C34.5628 50.9833 36.2752 50.3698 37.818 49.124L41.6039 46.0649C42.0795 45.6799 42.539 45.9535 42.6678 46.0474C42.937 46.2422 43.1635 46.6124 42.9927 47.0692L41.8279 50.1761C41.7785 50.3077 41.7644 50.4499 41.7868 50.5886C41.8093 50.7273 41.8676 50.8577 41.956 50.9669C42.044 51.0763 42.1591 51.1608 42.2899 51.2119C42.4207 51.263 42.5626 51.2789 42.7015 51.2581C46.2019 50.7397 48.4435 49.9794 50.9843 47.2626C52.6242 45.5095 53.982 43.5331 55.0187 41.3871C55.2348 40.9386 55.7344 40.7296 56.2056 40.8914C56.6444 41.0415 56.8003 41.1697 56.9324 41.4861C57.0468 41.7606 57.039 42.0143 56.909 42.281ZM17.7552 42.9811V44.9724C19.2805 45.9839 21.0951 46.8815 23.2301 47.702C24.4092 48.1556 25.6209 48.5195 26.8548 48.7905V42.3158C26.8548 41.7423 26.9292 41.1845 27.0683 40.6546C26.2076 39.0517 24.5264 38.0317 22.7045 38.0317C19.9756 38.0317 17.7552 40.2522 17.7552 42.9811ZM19.4649 21.4401C17.766 24.1737 16.7772 27.4354 16.7772 30.935C16.7772 33.4278 17.2904 35.8986 18.2664 38.1514C18.7791 37.6801 19.3631 37.2929 19.9968 37.004C19.1459 36.2533 18.608 35.1565 18.608 33.9352C18.608 31.8437 20.1845 30.1151 22.2101 29.8698C22.324 27.6229 22.7984 25.398 23.6073 23.2851C22.1635 22.783 20.778 22.1663 19.4649 21.4401ZM30.5978 13.7398C26.4819 14.4801 22.8767 16.8099 20.3825 20.1045C21.6108 20.7711 22.9051 21.3327 24.2434 21.7896C24.5373 21.1653 24.8607 20.5552 25.2122 19.9613C26.5959 17.6265 28.4298 15.513 30.5978 13.7398ZM46.4543 20.1045C43.9602 16.8099 40.355 14.4801 36.239 13.7398C38.4057 15.513 40.2409 17.6265 41.6246 19.9615C41.9759 20.5553 42.2989 21.1654 42.5928 21.7897C43.9317 21.3327 45.226 20.7709 46.4543 20.1045ZM48.5704 38.1514C49.5463 35.8988 50.0594 33.4278 50.0594 30.935C50.0594 27.4353 49.0706 24.1736 47.3718 21.4401C46.0588 22.1663 44.6719 22.783 43.2281 23.2851C44.0383 25.398 44.5127 27.6229 44.6266 29.8698C46.6522 30.1151 48.2286 31.8436 48.2286 33.9352C48.2286 35.1564 47.6909 36.2533 46.8398 37.004C47.4736 37.2929 48.0576 37.6801 48.5704 38.1514ZM28.4688 42.3159V49.0922C29.8254 49.2988 31.1963 49.3966 32.5685 49.3847C34.1941 49.3724 35.5395 48.8909 36.8041 47.8684L38.3683 46.6045V42.3159C38.3683 39.5862 36.1479 37.3659 33.4183 37.3659C30.689 37.3659 28.4688 39.5862 28.4688 42.3159ZM30.9357 33.2694C30.9357 34.6374 32.0488 35.7525 33.4181 35.7525C34.7868 35.7525 35.9012 34.6374 35.9012 33.2694C35.9012 31.9 34.7868 30.7863 33.4181 30.7863C32.0487 30.7863 30.9357 31.9 30.9357 33.2694ZM44.1316 36.4184C45.5003 36.4184 46.6147 35.3034 46.6147 33.9354C46.6147 32.566 45.5003 31.4523 44.1316 31.4523C42.7623 31.4523 41.6492 32.566 41.6492 33.9354C41.6492 35.3034 42.7623 36.4184 44.1316 36.4184ZM41.0227 22.2737C39.3751 18.8878 36.7722 15.8967 33.4181 13.6549C30.064 15.8966 27.4618 18.8878 25.8135 22.2737C30.7246 23.6216 36.1122 23.6216 41.0227 22.2737ZM20.2221 33.9352C20.2221 35.3033 21.3352 36.4183 22.7045 36.4183C24.0732 36.4183 25.1876 35.3033 25.1876 33.9352C25.1876 32.5659 24.0732 31.4522 22.7045 31.4522C21.3352 31.4522 20.2221 32.5659 20.2221 33.9352ZM25.409 37.008C26.3498 37.4371 27.1771 38.0802 27.8249 38.886C28.5128 37.7695 29.5173 36.8828 30.7106 36.3388C29.8596 35.5875 29.3218 34.4905 29.3218 33.2694C29.3218 31.0102 31.1597 29.173 33.4183 29.173C35.6775 29.173 37.5154 31.0103 37.5154 33.2694C37.5154 34.4905 36.9769 35.5875 36.1266 36.3388C37.3199 36.8828 38.3244 37.7695 39.0123 38.886C39.6599 38.0804 40.487 37.4373 41.4274 37.008C40.5745 36.2566 40.0354 35.1584 40.0354 33.9354C40.0354 32.0625 41.2986 30.4809 43.0174 29.9949C42.9145 27.8522 42.4549 25.7586 41.6791 23.7751C39.0601 24.518 36.278 24.9018 33.4183 24.9018C30.5578 24.9018 27.7771 24.518 25.1574 23.7751C24.3821 25.7586 23.9226 27.8522 23.819 29.9949C25.5372 30.4809 26.8017 32.0625 26.8017 33.9354C26.8017 35.1584 26.2613 36.2566 25.409 37.008ZM43.6114 44.7382C44.5426 45.4106 44.9024 46.5755 44.5045 47.6361L43.8308 49.4319C45.967 49.0165 47.4678 48.3907 49.0818 46.8867V42.9811C49.0818 40.2522 46.8613 38.0317 44.1317 38.0317C42.3107 38.0317 40.6294 39.0517 39.7686 40.6546C39.9106 41.1969 39.9822 41.7552 39.9816 42.3158V45.3005L40.5899 44.8092C41.4706 44.0982 42.6841 44.069 43.6114 44.7382ZM58.4214 40.8663C58.0279 39.9201 57.3445 39.5759 56.7285 39.3649C55.493 38.9423 54.1334 39.5085 53.5652 40.6851C52.7922 42.2837 51.8287 43.783 50.6957 45.1503V42.9811C50.6966 41.7624 50.3563 40.5677 49.7133 39.5324C50.9954 36.8842 51.6729 33.9223 51.6729 30.935C51.6729 20.4247 43.4832 11.8746 33.418 11.8746C23.3522 11.8746 15.1633 20.4247 15.1633 30.935C15.1633 33.9223 15.8414 36.8842 17.1235 39.5324C16.4802 40.5676 16.1399 41.7623 16.1411 42.9811V43.7687C12.5979 40.7795 11.1049 36.8429 11.1049 31.1972C11.1049 22.0911 16.8924 13.8031 25.5053 10.5738C30.6495 8.64525 35.6656 9.08928 40.9767 9.55968C42.2463 9.67104 43.5575 9.78752 44.8777 9.87162C45.0655 9.8828 45.2514 9.82818 45.4033 9.71714C45.5552 9.6061 45.6636 9.44559 45.71 9.26324C45.756 9.08069 45.7368 8.88779 45.6558 8.71788C45.5747 8.54797 45.4368 8.41172 45.2659 8.33267C41.4672 6.58023 37.385 5.69165 33.1319 5.69165C25.7266 5.69165 18.762 8.4233 13.5207 13.3818C8.2678 18.3525 5.375 24.9645 5.375 32.0003C5.375 39.0354 8.2678 45.6486 13.5207 50.6181C18.7619 55.5772 25.7265 58.3082 33.1319 58.3082C38.5402 58.3082 43.7801 56.8341 48.2888 54.0448C52.6875 51.3216 56.1698 47.4989 58.361 42.987C58.6938 42.3017 58.7139 41.569 58.4214 40.8663Z" fill="#FF3233"/>
</svg>
