<svg width="64" height="64" viewBox="0 0 64 64" fill="none" xmlns="http://www.w3.org/2000/svg">
<path d="M63.8341 43.5583L59.4159 21.3807C59.3049 20.8235 58.9827 20.3424 58.5084 20.0257C58.0342 19.7092 57.4661 19.5957 56.9089 19.7069L51.2237 20.8395H51.2236C50.0709 21.0692 49.3199 22.1937 49.5496 23.3464L49.6041 23.6201C46.1966 24.7505 42.0551 25.076 36.9024 20.8247C34.5553 18.8884 31.4966 18.8246 29.2909 20.6659L26.9903 22.5867H14.4616C14.3216 21.7356 13.6713 21.0177 12.7768 20.8394L7.09143 19.7067C6.53393 19.5956 5.96618 19.7091 5.49193 20.0256C5.01768 20.3422 4.69543 20.8235 4.58443 21.3806L0.166308 43.5583C-0.0633169 44.7109 0.687683 45.8354 1.84031 46.0651L7.52556 47.1977C7.80001 47.2529 8.08266 47.2531 8.35719 47.1984C8.63173 47.1437 8.8927 47.0351 9.12506 46.879C9.59931 46.5622 9.92168 46.0811 10.0327 45.5239L10.0596 45.3889L23.5452 58.8742C24.3449 59.6741 25.4119 60.1146 26.5492 60.1146C27.6864 60.1146 28.7534 59.6741 29.5531 58.8744C30.1233 58.3041 30.5111 57.5982 30.6867 56.8279L32.5612 58.7024C34.2178 60.3587 36.9131 60.3586 38.5694 58.7021C39.1324 58.1403 39.5254 57.431 39.7032 56.6557C40.4981 57.4294 41.5476 57.8546 42.6651 57.8546C43.8024 57.8546 44.8693 57.414 45.6692 56.614C46.5899 55.6931 46.9988 54.4515 46.8958 53.2455C47.0159 53.2555 47.1371 53.2606 47.2589 53.2606C48.3963 53.2606 49.4631 52.82 50.2629 52.0201C51.3839 50.8994 51.7669 49.2249 51.3048 47.7381L53.8929 45.1502L53.9674 45.524C54.0784 46.0812 54.4008 46.5624 54.8751 46.8791C55.1074 47.0352 55.3684 47.1438 55.6429 47.1985C55.9175 47.2532 56.2001 47.253 56.4746 47.1979L62.1598 46.0652C63.3127 45.8354 64.0637 44.7109 63.8341 43.5583ZM8.01443 45.2155C8.00032 45.2253 7.98438 45.2323 7.96754 45.2358C7.95071 45.2394 7.93333 45.2395 7.91643 45.2363L2.23118 44.1036C2.19741 44.096 2.16786 44.0757 2.14862 44.047C2.12938 44.0182 2.12193 43.9831 2.12781 43.949L6.54593 21.7715C6.55443 21.729 6.58143 21.7031 6.60256 21.689C6.61956 21.6777 6.64468 21.6659 6.67593 21.6659C6.68425 21.6659 6.69254 21.6667 6.70068 21.6684L12.3859 22.801C12.4547 22.8147 12.5031 22.887 12.4893 22.9557L8.07118 45.133C8.06771 45.1498 8.0609 45.1658 8.05116 45.18C8.04141 45.1942 8.02892 45.2062 8.01443 45.2155ZM48.8491 50.6056C48.4268 51.0279 47.8622 51.2605 47.2592 51.2605C46.6562 51.2605 46.0914 51.028 45.6693 50.6058L35.9968 40.9334C35.9042 40.8396 35.7939 40.765 35.6723 40.714C35.5508 40.663 35.4203 40.6366 35.2885 40.6361C35.1566 40.6357 35.026 40.6614 34.9042 40.7117C34.7823 40.7619 34.6715 40.8358 34.5783 40.929C34.4851 41.0222 34.4112 41.1329 34.3609 41.2548C34.3107 41.3767 34.285 41.5073 34.2854 41.6391C34.2858 41.771 34.3122 41.9014 34.3632 42.023C34.4142 42.1446 34.4888 42.2548 34.5826 42.3475L44.2551 52.0199C45.1317 52.8965 45.1317 54.3229 44.2551 55.1996C43.8329 55.6219 43.2682 55.8544 42.6651 55.8544C42.0621 55.8544 41.4974 55.622 41.0753 55.1997L30.8547 44.9794C30.4643 44.5887 29.8312 44.589 29.4406 44.9794C29.3477 45.0722 29.2741 45.1825 29.2238 45.3038C29.1736 45.4251 29.1477 45.5551 29.1477 45.6865C29.1477 45.8178 29.1736 45.9478 29.2239 46.0691C29.2741 46.1904 29.3478 46.3007 29.4407 46.3935L37.1546 54.1074L37.1552 54.108H37.1553C38.0318 54.9845 38.0318 56.4109 37.1552 57.2876C36.2784 58.1645 34.8518 58.1642 33.9754 57.2878L25.7129 49.0254C25.525 48.8397 25.2713 48.7359 25.0071 48.7367C24.7429 48.7375 24.4898 48.8428 24.303 49.0296C24.1162 49.2164 24.0109 49.4695 24.0101 49.7337C24.0093 49.9978 24.113 50.2516 24.2987 50.4395L28.1392 54.2799C28.5614 54.702 28.7938 55.2668 28.7938 55.8698C28.7938 56.4728 28.5613 57.0374 28.1389 57.4597C27.7169 57.8817 27.1523 58.1143 26.5492 58.1143C25.9461 58.1143 25.3814 57.8818 24.9593 57.4596L10.5294 43.0303L14.2037 24.5867H24.5951L21.6677 27.0309C20.4003 28.0889 19.8559 29.5319 20.1742 30.9895L22.4867 41.5864C22.5152 41.7169 22.5695 41.8403 22.6465 41.9495C22.7235 42.0586 22.8216 42.1512 22.935 42.2219C23.0484 42.2925 23.1747 42.3397 23.3067 42.3607C23.4386 42.3817 23.5734 42.3761 23.7031 42.3441C26.4802 41.6597 28.3371 40.3213 29.3799 38.2523C30.2813 36.464 30.4603 34.4294 30.6498 32.2755C30.6738 32.0017 30.6982 31.7264 30.7241 31.4502C30.7272 31.4269 30.7311 31.4104 30.7342 31.3994C31.0791 31.2541 32.7763 31.5903 35.3759 33.9527L49.3017 48.0815C49.6843 48.9269 49.5076 49.9474 48.8491 50.6056ZM50.1358 46.0789L36.7811 32.5295C36.7685 32.5167 36.7556 32.5043 36.7423 32.4922C34.0766 30.0635 31.5668 28.956 30.0268 29.5304C29.3023 29.8006 28.8319 30.4181 28.7367 31.2242C28.7357 31.2322 28.7348 31.2401 28.7341 31.248C28.7072 31.5332 28.6822 31.8175 28.6573 32.1002C28.3331 35.7849 28.0718 38.7521 24.2116 40.1104L22.1281 30.5632C21.9173 29.5982 22.5522 28.8979 22.9493 28.5664L30.5727 22.2014C32.0162 20.9964 34.0483 21.0632 35.6297 22.3677C41.4226 27.1471 46.2721 26.7825 49.9976 25.5956L53.4233 42.7917L50.1358 46.0789ZM61.7692 44.1036L56.0839 45.2363C56.067 45.2396 56.0497 45.2394 56.0328 45.2358C56.016 45.2323 56 45.2254 55.9859 45.2155C55.9714 45.2062 55.959 45.1942 55.9492 45.18C55.9395 45.1658 55.9327 45.1498 55.9292 45.133L51.5111 22.9556C51.5051 22.9215 51.5126 22.8864 51.5318 22.8576C51.551 22.8288 51.5805 22.8085 51.6143 22.8009L57.2997 21.6682C57.3423 21.6596 57.3766 21.6749 57.3978 21.689C57.4189 21.7031 57.4459 21.7289 57.4544 21.7715L61.8726 43.949C61.8863 44.0177 61.8379 44.09 61.7692 44.1036ZM31.0002 11.8874V4.8855C31.0002 4.62028 31.1055 4.36593 31.2931 4.17839C31.4806 3.99086 31.735 3.8855 32.0002 3.8855C32.2654 3.8855 32.5198 3.99086 32.7073 4.17839C32.8948 4.36593 33.0002 4.62028 33.0002 4.8855V11.8874C33.0002 12.1526 32.8948 12.4069 32.7073 12.5945C32.5198 12.782 32.2654 12.8874 32.0002 12.8874C31.735 12.8874 31.4806 12.782 31.2931 12.5945C31.1055 12.4069 31.0002 12.1526 31.0002 11.8874ZM21.9901 7.83562C21.8595 7.60607 21.8251 7.3342 21.8943 7.07936C21.9635 6.82452 22.1307 6.60739 22.3594 6.47535C22.5881 6.34331 22.8597 6.30709 23.115 6.37459C23.3703 6.44208 23.5885 6.60782 23.7221 6.83562L27.2231 12.8994C27.3108 13.0513 27.357 13.2237 27.3571 13.3992C27.3572 13.5746 27.3111 13.747 27.2234 13.899C27.1358 14.051 27.0096 14.1773 26.8578 14.2651C26.7059 14.353 26.5335 14.3993 26.3581 14.3995C26.1823 14.3997 26.0097 14.3536 25.8575 14.2658C25.7052 14.178 25.5789 14.0516 25.4911 13.8994L21.9901 7.83562ZM15.2961 13.5296C15.3617 13.4159 15.4491 13.3162 15.5533 13.2362C15.6574 13.1562 15.7764 13.0976 15.9032 13.0636C16.0301 13.0296 16.1624 13.0209 16.2926 13.0381C16.4228 13.0553 16.5483 13.0979 16.6621 13.1636L22.7259 16.6645C22.9167 16.7746 23.0658 16.9446 23.15 17.1481C23.2343 17.3516 23.249 17.5772 23.1919 17.7899C23.1348 18.0026 23.0091 18.1905 22.8342 18.3245C22.6594 18.4584 22.4452 18.5309 22.2249 18.5306C22.0497 18.5306 21.8776 18.4843 21.7259 18.3965L15.6621 14.8956C15.4324 14.763 15.2648 14.5446 15.1962 14.2884C15.1275 14.0322 15.1635 13.7593 15.2961 13.5296ZM36.7774 12.8995L40.2784 6.83575C40.3441 6.72201 40.4315 6.62233 40.5357 6.54238C40.6399 6.46243 40.7588 6.40379 40.8856 6.3698C41.0125 6.33581 41.1448 6.32715 41.275 6.3443C41.4052 6.36144 41.5307 6.40407 41.6444 6.46975C41.8741 6.60236 42.0417 6.82078 42.1103 7.07695C42.179 7.33312 42.143 7.60607 42.0104 7.83575L38.5094 13.8995C38.4438 14.0133 38.3564 14.113 38.2522 14.1929C38.148 14.2729 38.0291 14.3316 37.9023 14.3655C37.7754 14.3995 37.6431 14.4082 37.5129 14.391C37.3827 14.3739 37.2571 14.3312 37.1434 14.2655C37.0297 14.1999 36.93 14.1125 36.85 14.0083C36.7701 13.9041 36.7114 13.7852 36.6774 13.6583C36.6434 13.5315 36.6348 13.3992 36.6519 13.269C36.6691 13.1388 36.7117 13.0132 36.7774 12.8995ZM41.2746 16.6645L47.3383 13.1636C47.5679 13.0331 47.8397 12.9987 48.0946 13.0679C48.3494 13.1371 48.5665 13.3042 48.6986 13.5329C48.8306 13.7616 48.8668 14.0332 48.7993 14.2885C48.7318 14.5438 48.5661 14.7621 48.3383 14.8956L42.2746 18.3965C42.1608 18.4622 42.0353 18.5049 41.9051 18.522C41.7749 18.5392 41.6426 18.5305 41.5157 18.4965C41.3889 18.4626 41.2699 18.4039 41.1658 18.3239C41.0616 18.244 40.9742 18.1443 40.9086 18.0305C40.776 17.8008 40.74 17.5279 40.8087 17.2717C40.8773 17.0155 41.0449 16.7971 41.2746 16.6645Z" fill="#FF3233"/>
</svg>
