<svg width="64" height="64" viewBox="0 0 64 64" fill="none" xmlns="http://www.w3.org/2000/svg">
<path d="M32 9C31.7348 9 31.4804 8.89464 31.2929 8.70711C31.1054 8.51957 31 8.26522 31 8V4C31 3.73478 31.1054 3.48043 31.2929 3.29289C31.4804 3.10536 31.7348 3 32 3C32.2652 3 32.5196 3.10536 32.7071 3.29289C32.8946 3.48043 33 3.73478 33 4V8C33 8.26522 32.8946 8.51957 32.7071 8.70711C32.5196 8.89464 32.2652 9 32 9ZM22 11.68C21.8243 11.6802 21.6517 11.634 21.4994 11.5463C21.3472 11.4585 21.2208 11.3322 21.133 11.18L19.133 7.716C19.0663 7.60223 19.0228 7.47639 19.0049 7.34573C18.987 7.21506 18.9952 7.08215 19.0289 6.95465C19.0626 6.82715 19.1212 6.70758 19.2013 6.60282C19.2814 6.49806 19.3815 6.41018 19.4957 6.34424C19.6099 6.27829 19.736 6.2356 19.8668 6.2186C19.9976 6.2016 20.1304 6.21064 20.2577 6.24519C20.385 6.27974 20.5041 6.33913 20.6084 6.41993C20.7126 6.50073 20.7998 6.60135 20.865 6.716L22.865 10.18C22.9527 10.3319 22.9989 10.5043 22.999 10.6797C22.999 10.8552 22.9529 11.0276 22.8653 11.1796C22.7776 11.3315 22.6515 11.4578 22.4996 11.5456C22.3478 11.6335 22.1754 11.6798 22 11.68ZM14.679 19C14.5034 19.0004 14.3309 18.9541 14.179 18.866L10.714 16.866C10.4862 16.7324 10.3205 16.5142 10.253 16.2589C10.1855 16.0036 10.2217 15.732 10.3537 15.5033C10.4858 15.2746 10.7029 15.1074 10.9577 15.0383C11.2126 14.9691 11.4844 15.0035 11.714 15.134L15.179 17.134C15.3696 17.2441 15.5186 17.414 15.6028 17.6173C15.6871 17.8207 15.7019 18.0462 15.6449 18.2588C15.5879 18.4714 15.4624 18.6593 15.2877 18.7933C15.1131 18.9273 14.8991 19 14.679 19ZM12 29H8C7.73478 29 7.48043 28.8946 7.29289 28.7071C7.10536 28.5196 7 28.2652 7 28C7 27.7348 7.10536 27.4804 7.29289 27.2929C7.48043 27.1054 7.73478 27 8 27H12C12.2652 27 12.5196 27.1054 12.7071 27.2929C12.8946 27.4804 13 27.7348 13 28C13 28.2652 12.8946 28.5196 12.7071 28.7071C12.5196 28.8946 12.2652 29 12 29ZM11.216 41C10.9959 41 10.7819 40.9273 10.6073 40.7933C10.4326 40.6593 10.3071 40.4714 10.2501 40.2588C10.1931 40.0462 10.2079 39.8207 10.2922 39.6173C10.3764 39.414 10.5254 39.2441 10.716 39.134L14.181 37.134C14.2948 37.0673 14.4206 37.0238 14.5513 37.0059C14.6819 36.988 14.8148 36.9962 14.9423 37.0299C15.0698 37.0636 15.1894 37.1222 15.2942 37.2023C15.3989 37.2824 15.4868 37.3825 15.5528 37.4967C15.6187 37.6109 15.6614 37.737 15.6784 37.8678C15.6954 37.9986 15.6864 38.1314 15.6518 38.2587C15.6173 38.386 15.5579 38.5051 15.4771 38.6094C15.3963 38.7136 15.2956 38.8008 15.181 38.866L11.716 40.866C11.5641 40.9541 11.3916 41.0004 11.216 41ZM52.784 41C52.6084 41.0004 52.4359 40.9541 52.284 40.866L48.819 38.866C48.7044 38.8008 48.6037 38.7136 48.5229 38.6094C48.4421 38.5051 48.3827 38.386 48.3482 38.2587C48.3136 38.1314 48.3046 37.9986 48.3216 37.8678C48.3386 37.737 48.3813 37.6109 48.4472 37.4967C48.5132 37.3825 48.6011 37.2824 48.7058 37.2023C48.8106 37.1222 48.9302 37.0636 49.0577 37.0299C49.1852 36.9962 49.3181 36.988 49.4487 37.0059C49.5794 37.0238 49.7052 37.0673 49.819 37.134L53.284 39.134C53.4746 39.2441 53.6236 39.414 53.7078 39.6173C53.7921 39.8207 53.8069 40.0462 53.7499 40.2588C53.6929 40.4714 53.5674 40.6593 53.3927 40.7933C53.2181 40.9273 53.0041 41 52.784 41ZM56 29H52C51.7348 29 51.4804 28.8946 51.2929 28.7071C51.1054 28.5196 51 28.2652 51 28C51 27.7348 51.1054 27.4804 51.2929 27.2929C51.4804 27.1054 51.7348 27 52 27H56C56.2652 27 56.5196 27.1054 56.7071 27.2929C56.8946 27.4804 57 27.7348 57 28C57 28.2652 56.8946 28.5196 56.7071 28.7071C56.5196 28.8946 56.2652 29 56 29Z" fill="#FF3233"/>
<path d="M48.0003 27H43.0003C43.0003 25.9391 42.5789 24.9217 41.8288 24.1716C41.0786 23.4214 40.0612 23 39.0003 23C37.9395 23 36.9221 23.4214 36.1719 24.1716C35.4218 24.9217 35.0003 25.9391 35.0003 27H33.0003V23.816C33.0002 23.6561 32.9617 23.4986 32.8881 23.3567C32.8146 23.2148 32.708 23.0925 32.5775 23.0003C32.4469 22.908 32.2961 22.8484 32.1378 22.8264C31.9794 22.8044 31.8181 22.8208 31.6673 22.874C31.3648 22.9868 31.0395 23.0246 30.7192 22.9844C30.3989 22.9441 30.0931 22.8269 29.8279 22.6428C29.5627 22.4586 29.3461 22.213 29.1965 21.927C29.0468 21.6409 28.9687 21.3228 28.9687 21C28.9687 20.6772 29.0468 20.3591 29.1965 20.073C29.3461 19.787 29.5627 19.5414 29.8279 19.3572C30.0931 19.1731 30.3989 19.0559 30.7192 19.0156C31.0395 18.9754 31.3648 19.0132 31.6673 19.126C31.8181 19.1792 31.9794 19.1956 32.1378 19.1736C32.2961 19.1516 32.4469 19.092 32.5775 18.9997C32.708 18.9075 32.8146 18.7852 32.8881 18.6433C32.9617 18.5014 33.0002 18.3439 33.0003 18.184V12C33.0003 11.7348 32.895 11.4804 32.7074 11.2929C32.5199 11.1054 32.2656 11 32.0003 11C28.1163 11.0035 24.3505 12.3369 21.3297 14.7784C18.309 17.2198 16.2153 20.6221 15.3971 24.419C14.5789 28.2159 15.0856 32.1784 16.8328 35.6473C18.58 39.1162 21.4624 41.8822 25.0003 43.485V45H24.0003C23.2047 45 22.4416 45.3161 21.879 45.8787C21.3164 46.4413 21.0003 47.2043 21.0003 48V50C21.0003 50.7957 21.3164 51.5587 21.879 52.1213C22.4416 52.6839 23.2047 53 24.0003 53H25.0003V56C25.0019 57.3256 25.5292 58.5964 26.4666 59.5338C27.4039 60.4711 28.6747 60.9984 30.0003 61H34.0003C35.3259 60.9984 36.5968 60.4711 37.5341 59.5338C38.4715 58.5964 38.9988 57.3256 39.0003 56V53H40.0003C40.796 53 41.559 52.6839 42.1217 52.1213C42.6843 51.5587 43.0003 50.7957 43.0003 50V48C43.0003 47.2043 42.6843 46.4413 42.1217 45.8787C41.559 45.3161 40.796 45 40.0003 45H39.0003V43.485C41.9854 42.1465 44.5186 39.9715 46.2934 37.2233C48.0681 34.4751 49.0084 31.2714 49.0003 28C49.0003 27.7348 48.895 27.4804 48.7074 27.2929C48.5199 27.1054 48.2656 27 48.0003 27ZM31.0003 13.033V17C29.9395 17 28.9221 17.4214 28.1719 18.1716C27.4218 18.9217 27.0003 19.9391 27.0003 21C27.0003 22.0609 27.4218 23.0783 28.1719 23.8284C28.9221 24.5786 29.9395 25 31.0003 25V27H27.8163C27.6563 27.0001 27.4987 27.0386 27.3567 27.1122C27.2146 27.1858 27.0923 27.2925 27 27.4232C26.9078 27.5539 26.8482 27.7048 26.8263 27.8633C26.8044 28.0218 26.8209 28.1832 26.8743 28.334C26.9871 28.6365 27.025 28.9618 26.9847 29.2821C26.9445 29.6024 26.8272 29.9082 26.6431 30.1734C26.459 30.4386 26.2134 30.6553 25.9273 30.8049C25.6412 30.9545 25.3232 31.0327 25.0003 31.0327C24.6775 31.0327 24.3595 30.9545 24.0734 30.8049C23.7873 30.6553 23.5417 30.4386 23.3576 30.1734C23.1734 29.9082 23.0562 29.6024 23.016 29.2821C22.9757 28.9618 23.0136 28.6365 23.1263 28.334C23.1798 28.1832 23.1962 28.0218 23.1744 27.8633C23.1525 27.7048 23.0929 27.5539 23.0006 27.4232C22.9083 27.2925 22.786 27.1858 22.644 27.1122C22.502 27.0386 22.3443 27.0001 22.1843 27H17.0333C17.2802 23.3771 18.831 19.9661 21.3987 17.3984C23.9665 14.8306 27.3774 13.2799 31.0003 13.033ZM26.3753 41.9C23.7602 40.85 21.4956 39.0814 19.8432 36.7987C18.1908 34.5159 17.2181 31.8122 17.0373 29H21.0003C21.0003 30.0609 21.4218 31.0783 22.1719 31.8284C22.9221 32.5786 23.9395 33 25.0003 33C26.0612 33 27.0786 32.5786 27.8288 31.8284C28.5789 31.0783 29.0003 30.0609 29.0003 29H31.0003V32.184C31.0005 32.3439 31.039 32.5014 31.1125 32.6433C31.1861 32.7852 31.2927 32.9075 31.4232 32.9997C31.5538 33.092 31.7046 33.1516 31.8629 33.1736C32.0213 33.1956 32.1826 33.1792 32.3333 33.126C32.6358 33.0132 32.9611 32.9753 33.2815 33.0156C33.6018 33.0559 33.9076 33.1731 34.1728 33.3572C34.4379 33.5414 34.6546 33.787 34.8042 34.0731C34.9538 34.3591 35.032 34.6772 35.032 35C35.032 35.3228 34.9538 35.6409 34.8042 35.9269C34.6546 36.213 34.4379 36.4586 34.1728 36.6428C33.9076 36.8269 33.6018 36.9441 33.2815 36.9844C32.9611 37.0247 32.6358 36.9868 32.3333 36.874C32.1826 36.8208 32.0213 36.8044 31.8629 36.8264C31.7046 36.8484 31.5538 36.908 31.4232 37.0003C31.2927 37.0925 31.1861 37.2148 31.1125 37.3567C31.039 37.4986 31.0005 37.6561 31.0003 37.816V45H27.0003V42.826C27.0001 42.627 26.9405 42.4325 26.8292 42.2676C26.7179 42.1026 26.5598 41.9746 26.3753 41.9ZM37.0003 56C37.0003 56.7957 36.6843 57.5587 36.1217 58.1213C35.559 58.6839 34.796 59 34.0003 59H30.0003C29.2047 59 28.4416 58.6839 27.879 58.1213C27.3164 57.5587 27.0003 56.7957 27.0003 56V53H29.0003V56C29.0003 56.2652 29.1057 56.5196 29.2932 56.7071C29.4808 56.8946 29.7351 57 30.0003 57C30.2656 57 30.5199 56.8946 30.7074 56.7071C30.895 56.5196 31.0003 56.2652 31.0003 56V53H33.0003V56C33.0003 56.2652 33.1057 56.5196 33.2932 56.7071C33.4808 56.8946 33.7351 57 34.0003 57C34.2656 57 34.5199 56.8946 34.7074 56.7071C34.895 56.5196 35.0003 56.2652 35.0003 56V53H37.0003V56ZM40.0003 47C40.2656 47 40.5199 47.1054 40.7074 47.2929C40.895 47.4804 41.0003 47.7348 41.0003 48V50C41.0003 50.2652 40.895 50.5196 40.7074 50.7071C40.5199 50.8946 40.2656 51 40.0003 51H24.0003C23.7351 51 23.4808 50.8946 23.2932 50.7071C23.1057 50.5196 23.0003 50.2652 23.0003 50V48C23.0003 47.7348 23.1057 47.4804 23.2932 47.2929C23.4808 47.1054 23.7351 47 24.0003 47H40.0003ZM37.6253 41.9C37.4407 41.9747 37.2825 42.1028 37.1712 42.268C37.0598 42.4332 37.0003 42.6278 37.0003 42.827V45H33.0003V39C34.0612 39 35.0786 38.5786 35.8288 37.8284C36.5789 37.0783 37.0003 36.0609 37.0003 35C37.0003 33.9391 36.5789 32.9217 35.8288 32.1716C35.0786 31.4214 34.0612 31 33.0003 31V29H36.1843C36.3443 28.9999 36.502 28.9614 36.644 28.8878C36.786 28.8142 36.9083 28.7075 37.0006 28.5768C37.0929 28.4461 37.1525 28.2952 37.1744 28.1367C37.1962 27.9782 37.1798 27.8168 37.1263 27.666C37.0136 27.3635 36.9757 27.0382 37.016 26.7179C37.0562 26.3976 37.1734 26.0918 37.3576 25.8266C37.5417 25.5614 37.7873 25.3447 38.0734 25.1951C38.3595 25.0455 38.6775 24.9673 39.0003 24.9673C39.3232 24.9673 39.6412 25.0455 39.9273 25.1951C40.2134 25.3447 40.459 25.5614 40.6431 25.8266C40.8272 26.0918 40.9445 26.3976 40.9847 26.7179C41.025 27.0382 40.9871 27.3635 40.8743 27.666C40.8209 27.8168 40.8044 27.9782 40.8263 28.1367C40.8482 28.2952 40.9078 28.4461 41 28.5768C41.0923 28.7075 41.2146 28.8142 41.3567 28.8878C41.4987 28.9614 41.6563 28.9999 41.8163 29H46.9673C46.7858 31.8125 45.8123 34.5164 44.1592 36.799C42.5061 39.0817 40.2409 40.8502 37.6253 41.9Z" fill="#FF3233"/>
<path d="M40 3C39.7348 3 39.4804 3.10536 39.2929 3.29289C39.1054 3.48043 39 3.73478 39 4V9C37.9391 9 36.9217 9.42143 36.1716 10.1716C35.4214 10.9217 35 11.9391 35 13C35 14.0609 35.4214 15.0783 36.1716 15.8284C36.9217 16.5786 37.9391 17 39 17V20C39 20.2652 39.1054 20.5196 39.2929 20.7071C39.4804 20.8946 39.7348 21 40 21H44.184C44.344 20.9999 44.5016 20.9614 44.6437 20.8878C44.7857 20.8142 44.908 20.7075 45.0003 20.5768C45.0926 20.4461 45.1522 20.2952 45.174 20.1367C45.1959 19.9782 45.1794 19.8168 45.126 19.666C45.0132 19.3635 44.9753 19.0382 45.0156 18.7179C45.0559 18.3976 45.1731 18.0918 45.3572 17.8266C45.5414 17.5614 45.787 17.3447 46.0731 17.1951C46.3591 17.0455 46.6772 16.9673 47 16.9673C47.3228 16.9673 47.6409 17.0455 47.9269 17.1951C48.213 17.3447 48.4586 17.5614 48.6428 17.8266C48.8269 18.0918 48.9441 18.3976 48.9844 18.7179C49.0247 19.0382 48.9868 19.3635 48.874 19.666C48.8206 19.8168 48.8041 19.9782 48.826 20.1367C48.8478 20.2952 48.9074 20.4461 48.9997 20.5768C49.092 20.7075 49.2143 20.8142 49.3563 20.8878C49.4984 20.9614 49.656 20.9999 49.816 21H56C56.2652 21 56.5196 20.8946 56.7071 20.7071C56.8946 20.5196 57 20.2652 57 20C56.995 15.4929 55.2023 11.1718 52.0153 7.98474C48.8282 4.79771 44.5071 3.00503 40 3ZM51 19C51 17.9391 50.5786 16.9217 49.8284 16.1716C49.0783 15.4214 48.0609 15 47 15C45.9391 15 44.9217 15.4214 44.1716 16.1716C43.4214 16.9217 43 17.9391 43 19H41V15.816C40.9999 15.6561 40.9614 15.4986 40.8878 15.3567C40.8142 15.2148 40.7077 15.0925 40.5771 15.0003C40.4466 14.908 40.2958 14.8484 40.1374 14.8264C39.9791 14.8044 39.8177 14.8208 39.667 14.874C39.3645 14.9868 39.0392 15.0246 38.7189 14.9844C38.3986 14.9441 38.0928 14.8269 37.8276 14.6428C37.5624 14.4586 37.3457 14.213 37.1961 13.927C37.0465 13.6409 36.9683 13.3228 36.9683 13C36.9683 12.6772 37.0465 12.3591 37.1961 12.073C37.3457 11.787 37.5624 11.5414 37.8276 11.3572C38.0928 11.1731 38.3986 11.0559 38.7189 11.0156C39.0392 10.9754 39.3645 11.0132 39.667 11.126C39.8177 11.1792 39.9791 11.1956 40.1374 11.1736C40.2958 11.1516 40.4466 11.092 40.5771 10.9997C40.7077 10.9075 40.8142 10.7852 40.8878 10.6433C40.9614 10.5014 40.9999 10.3439 41 10.184V5.033C44.6229 5.27986 48.0339 6.83063 50.6016 9.39838C53.1694 11.9661 54.7201 15.3771 54.967 19H51Z" fill="#FF3233"/>
</svg>
