<svg width="64" height="64" viewBox="0 0 64 64" fill="none" xmlns="http://www.w3.org/2000/svg">
<g clip-path="url(#clip0_36684_1613)">
<path d="M59.7238 49.8475L51.9077 38.6851C54.7794 34.6754 56.4717 29.7665 56.4717 24.4695C56.4717 10.9769 45.4942 0 32.001 0C26.486 0 21.2804 1.79061 16.9467 5.1783C16.7508 5.33145 16.6237 5.55616 16.5934 5.80299C16.5632 6.04982 16.6322 6.29855 16.7854 6.49448C16.9385 6.6904 17.1633 6.81745 17.4101 6.8477C17.6569 6.87794 17.9057 6.8089 18.1016 6.65575C22.1022 3.52834 26.9086 1.87525 32.001 1.87525C44.4603 1.87525 54.5965 12.0109 54.5965 24.4693C54.5965 36.9285 44.4601 47.0648 32.001 47.0648C19.5419 47.0648 9.40556 36.9285 9.40556 24.4693C9.40556 18.9666 11.4073 13.6645 15.0422 9.53975C15.2055 9.35303 15.2881 9.10921 15.2721 8.86168C15.256 8.61415 15.1425 8.38308 14.9564 8.21906C14.7703 8.05505 14.5268 7.97146 14.2792 7.9866C14.0316 8.00174 13.8001 8.11437 13.6354 8.29984C6.22527 16.7089 5.38003 29.3096 12.0944 38.6849L4.27839 49.8474C2.96872 51.7176 4.31739 54.3061 6.6322 54.2731L14.3887 54.1343C14.7908 54.1295 15.1587 54.3807 15.2912 54.767L17.8138 62.101C18.5596 64.2748 21.4603 64.6827 22.7779 62.801L30.2552 52.1207C30.3978 51.917 30.4536 51.665 30.4104 51.4201C30.3672 51.1752 30.2285 50.9575 30.0248 50.8149C29.9239 50.7442 29.8101 50.6941 29.6899 50.6674C29.5697 50.6407 29.4454 50.638 29.3241 50.6594C29.2029 50.6808 29.087 50.7259 28.9832 50.7921C28.8793 50.8583 28.7895 50.9443 28.719 51.0452L21.2417 61.7255C20.8019 62.3532 19.837 62.2199 19.5873 61.4919L17.0647 54.1578C16.8758 53.6033 16.5179 53.122 16.0412 52.7814C15.5646 52.4408 14.9933 52.2582 14.4075 52.2591C14.3675 52.2591 14.7794 52.252 6.59857 52.3984C5.84859 52.419 5.36766 51.5612 5.81446 50.9232L13.3001 40.2326C17.695 45.4386 24.2182 48.791 31.5151 48.934L41.2245 62.8011C42.5444 64.6862 45.4444 64.2703 46.1884 62.1019L48.7115 54.7665C48.8437 54.3809 49.2053 54.1222 49.6143 54.1345L57.3703 54.2732C59.6903 54.3036 61.0314 51.7148 59.7238 49.8475ZM57.4036 52.3982L49.6481 52.2595C48.3824 52.242 47.324 53.0311 46.9376 54.1572L44.4145 61.4927C44.1655 62.2186 43.2005 62.3539 42.7603 61.7255L33.7635 48.8763C40.5424 48.3913 46.5652 45.1332 50.7022 40.2326L58.1877 50.9232C58.625 51.5476 58.1769 52.41 57.4036 52.3982Z" fill="#FF3233"/>
<path d="M32.0001 43.2923C42.3788 43.2923 50.8224 34.8487 50.8224 24.4699C50.8224 14.0912 42.3787 5.64771 32.0001 5.64771C21.6215 5.64771 13.1777 14.0913 13.1777 24.47C13.1777 34.8488 21.6213 43.2923 32.0001 43.2923ZM32.0001 7.52295C41.3447 7.52295 48.9472 15.1254 48.9472 24.47C48.9472 33.8146 41.3447 41.4171 32.0001 41.4171C22.6555 41.4171 15.053 33.8146 15.053 24.47C15.053 15.1254 22.6555 7.52295 32.0001 7.52295Z" fill="#FF3233"/>
<path d="M20.1163 23.9452L24.2346 26.9382C24.3951 27.0543 24.5145 27.2184 24.5758 27.4067C24.637 27.5951 24.6367 27.7981 24.5751 27.9863L23.0024 32.8282C22.1596 35.4218 25.1272 37.5728 27.3307 35.9729L31.4485 32.9801C31.6087 32.8633 31.8018 32.8004 32.0001 32.8004C32.1983 32.8003 32.3914 32.8632 32.5517 32.9799L36.67 35.973C38.8729 37.573 41.8408 35.4217 40.998 32.8282L39.4252 27.9861C39.3636 27.7978 39.3634 27.5948 39.4247 27.4065C39.486 27.2181 39.6055 27.0541 39.7661 26.9381L43.8839 23.9453C46.0916 22.3424 44.9535 18.8574 42.2303 18.8574H41.1114C40.5936 18.8574 40.1738 19.2771 40.1738 19.795C40.1738 20.313 40.5936 20.7326 41.1114 20.7326H42.2303C42.8633 20.7326 43.0737 21.2286 43.1229 21.3806C43.1723 21.5324 43.2935 22.0567 42.7818 22.4282L38.664 25.421C38.1823 25.7693 37.8238 26.2615 37.6401 26.8267C37.4563 27.3919 37.4569 28.0009 37.6417 28.5658L39.2145 33.4077C39.4099 34.009 39.0035 34.3621 38.8742 34.4559C38.7449 34.55 38.2834 34.8274 37.7721 34.4559L33.6538 31.4629C33.1735 31.1128 32.5945 30.9242 32.0001 30.9242C31.4057 30.9242 30.8267 31.1129 30.3464 31.463L26.2286 34.4558C25.7168 34.8274 25.2553 34.5497 25.1261 34.4559C24.9969 34.3621 24.5905 34.009 24.7859 33.4077L26.3585 28.5659C26.5433 28.0011 26.544 27.3921 26.3604 26.8269C26.1767 26.2616 25.8183 25.7693 25.3367 25.421L21.2184 22.428C20.707 22.0566 20.8281 21.5322 20.8775 21.3805C20.9269 21.2285 21.1372 20.7325 21.7701 20.7325H26.8608C27.455 20.7334 28.0342 20.5455 28.5148 20.1961C28.9955 19.8467 29.3528 19.3537 29.5353 18.7881L31.108 13.9475C31.3034 13.3463 31.8403 13.2995 32.0002 13.2995C32.1601 13.2995 32.6972 13.3463 32.8925 13.9475L34.4653 18.7886C34.7731 19.7341 35.5662 20.4532 36.5351 20.6658C36.778 20.719 37.0321 20.6736 37.2415 20.5395C37.451 20.4053 37.5985 20.1935 37.6518 19.9506C37.705 19.7077 37.6596 19.4536 37.5255 19.2441C37.3914 19.0347 37.1795 18.8871 36.9366 18.8339C36.7775 18.7984 36.6305 18.722 36.5098 18.6124C36.3892 18.5028 36.2992 18.3637 36.2487 18.2087L34.6759 13.3681C33.8347 10.7785 30.1671 10.7743 29.3245 13.3681L27.7518 18.2084C27.6911 18.397 27.5721 18.5614 27.412 18.678C27.2519 18.7945 27.0589 18.8573 26.8608 18.8571H21.7701C19.0422 18.8574 17.9128 22.3451 20.1163 23.9452Z" fill="#FF3233"/>
</g>
<defs>
<clipPath id="clip0_36684_1613">
<rect width="64" height="64" fill="white"/>
</clipPath>
</defs>
</svg>
