<svg width="64" height="64" viewBox="0 0 64 64" fill="none" xmlns="http://www.w3.org/2000/svg">
<path d="M32 25.125C30.6403 25.125 29.311 25.5282 28.1805 26.2836C27.0499 27.0391 26.1687 28.1128 25.6483 29.3691C25.128 30.6253 24.9918 32.0076 25.2571 33.3412C25.5224 34.6749 26.1772 35.8999 27.1386 36.8614C28.1001 37.8228 29.3251 38.4776 30.6588 38.7429C31.9924 39.0082 33.3747 38.872 34.6309 38.3517C35.8872 37.8313 36.9609 36.9501 37.7164 35.8195C38.4718 34.689 38.875 33.3597 38.875 32C38.873 30.1772 38.1481 28.4297 36.8592 27.1408C35.5703 25.852 33.8228 25.127 32 25.125ZM32 37.125C30.9864 37.125 29.9955 36.8244 29.1527 36.2613C28.3099 35.6981 27.653 34.8977 27.2651 33.9613C26.8772 33.0248 26.7757 31.9943 26.9735 31.0002C27.1712 30.006 27.6593 29.0928 28.3761 28.3761C29.0928 27.6593 30.006 27.1712 31.0002 26.9735C31.9943 26.7757 33.0248 26.8772 33.9613 27.2651C34.8977 27.653 35.6981 28.3099 36.2613 29.1527C36.8244 29.9955 37.125 30.9864 37.125 32C37.1235 33.3588 36.5831 34.6615 35.6223 35.6223C34.6615 36.5831 33.3588 37.1235 32 37.125Z" fill="#FF3233"/>
<path d="M34.9997 31.125C34.7676 31.125 34.5451 31.2172 34.381 31.3813C34.2169 31.5454 34.1247 31.7679 34.1247 32C34.1234 32.3721 34.025 32.7374 33.8391 33.0598C33.6533 33.3821 33.3865 33.6504 33.0652 33.838C32.9659 33.8959 32.879 33.9727 32.8094 34.0642C32.7399 34.1557 32.689 34.26 32.6597 34.3711C32.6305 34.4822 32.6234 34.598 32.6388 34.7119C32.6543 34.8258 32.6921 34.9355 32.75 35.0348C32.8078 35.134 32.8847 35.2209 32.9762 35.2905C33.0676 35.3601 33.1719 35.411 33.283 35.4402C33.3942 35.4695 33.51 35.4766 33.6238 35.4611C33.7377 35.4456 33.8474 35.4079 33.9467 35.35C34.532 35.0079 35.0177 34.5188 35.3559 33.9312C35.6941 33.3436 35.8729 32.6779 35.8747 32C35.8747 31.7679 35.7825 31.5454 35.6184 31.3813C35.4543 31.2172 35.2318 31.125 34.9997 31.125Z" fill="#FF3233"/>
<path d="M54.6149 29.955C54.9339 30.0388 55.2621 30.0818 55.5919 30.083C56.358 30.0825 57.1068 29.8551 57.7436 29.4293C58.3805 29.0035 58.8769 28.3985 59.1701 27.6908C59.4633 26.983 59.5401 26.2043 59.3909 25.4528C59.2418 24.7014 58.8732 24.0111 58.3319 23.469C58.2684 23.406 58.2009 23.349 58.1319 23.2905C58.7819 20.9335 58.6319 18.8805 57.6554 17.1875C55.5554 13.5475 50.0409 12.355 42.4744 13.8615C39.9879 6.5555 36.1959 2.375 31.9999 2.375C27.8039 2.375 24.0124 6.555 21.5234 13.862C13.9554 12.3545 8.44242 13.5475 6.34292 17.187C5.39642 18.822 5.23042 20.8765 5.83392 23.157C5.12158 23.7147 4.62682 24.504 4.4354 25.3882C4.24398 26.2724 4.36796 27.1958 4.78586 27.9981C5.20376 28.8005 5.88924 29.4314 6.72347 29.7814C7.5577 30.1314 8.48811 30.1785 9.35342 29.9145C9.89396 30.6315 10.461 31.3282 11.0534 32.003C5.96892 37.805 4.24442 43.1765 6.34242 46.8125C7.84992 49.426 11.1129 50.7815 15.6339 50.7815C17.613 50.7572 19.5851 50.5409 21.5224 50.1355C24.0109 57.4435 27.8034 61.625 31.9999 61.625C33.8959 61.625 35.7659 60.736 37.4464 59.063C38.2732 59.4253 39.2006 59.4874 40.0684 59.2385C40.9361 58.9897 41.6897 58.4455 42.1989 57.7001C42.708 56.9547 42.9408 56.0549 42.857 55.1561C42.7732 54.2573 42.3781 53.4159 41.7399 52.7775C41.6769 52.714 41.6094 52.6565 41.5429 52.5985C41.8836 51.7886 42.1962 50.9671 42.4799 50.1355C44.4163 50.5412 46.3876 50.7575 48.3659 50.7815C52.8864 50.7815 56.1499 49.4255 57.6574 46.8125C59.7574 43.1765 58.0309 37.805 52.9474 32.0035C53.528 31.3412 54.0842 30.6579 54.6149 29.955ZM57.0939 27.712C56.6951 28.1097 56.1549 28.333 55.5917 28.333C55.0285 28.333 54.4882 28.1097 54.0894 27.712C53.7925 27.4149 53.5904 27.0364 53.5086 26.6245C53.4268 26.2125 53.469 25.7855 53.6298 25.3975C53.7906 25.0095 54.0628 24.6779 54.4121 24.4445C54.7613 24.2112 55.1719 24.0867 55.5919 24.0867C56.0119 24.0867 56.4225 24.2112 56.7718 24.4445C57.121 24.6779 57.3933 25.0095 57.5541 25.3975C57.7149 25.7855 57.757 26.2125 57.6752 26.6245C57.5934 27.0364 57.3908 27.4149 57.0939 27.712ZM56.1414 18.062C56.8259 19.2505 56.9579 20.728 56.5459 22.462C55.7242 22.253 54.8567 22.3195 54.0764 22.6512C53.2962 22.9829 52.6463 23.5615 52.2267 24.2982C51.807 25.0349 51.6407 25.889 51.7533 26.7293C51.8659 27.5696 52.2511 28.3498 52.8499 28.95C52.9129 29.0135 52.9804 29.0705 53.0469 29.129C52.6409 29.6577 52.2123 30.1823 51.7609 30.703C49.6162 28.4759 47.2802 26.4413 44.7799 24.6225C44.4534 21.5489 43.8611 18.5094 43.0099 15.538C49.6039 14.263 54.4804 15.183 56.1414 18.062ZM41.2944 48.091C38.8601 47.497 36.4737 46.7213 34.1554 45.7705C37.1727 44.3164 40.0767 42.638 42.8429 40.7495C42.511 43.2319 41.9934 45.686 41.2944 48.091ZM22.7054 48.091C22.0059 45.686 21.4878 43.232 21.1554 40.7495C23.9226 42.6376 26.8272 44.316 29.8449 45.7705C27.5264 46.7213 25.1399 47.497 22.7054 48.091ZM22.7054 15.909C25.1398 16.5029 27.5261 17.2786 29.8444 18.2295C26.8275 19.6869 23.9229 21.366 21.1544 23.253C21.487 20.7696 22.0054 18.3148 22.7054 15.909ZM18.9999 37.017C17.0151 35.4886 15.1493 33.8114 13.4189 32C15.1495 30.1887 17.0152 28.5116 18.9999 26.983C18.7487 30.3229 18.7487 33.677 18.9999 37.017ZM26.2834 41.907C24.4253 40.8348 22.6219 39.6705 20.8799 38.4185C20.6709 36.323 20.5609 34.1685 20.5609 32C20.5609 29.8315 20.6709 27.6775 20.8799 25.5815C22.6219 24.3295 24.4253 23.1652 26.2834 22.093C28.1399 21.0205 30.0479 20.0397 32.0004 19.154C33.9532 20.0398 35.8615 21.0206 37.7184 22.093C39.5765 23.1652 41.3799 24.3295 43.1219 25.5815C43.3309 27.677 43.4409 29.8315 43.4409 32C43.4409 34.1685 43.3309 36.3225 43.1219 38.4185C41.3799 39.6705 39.5765 40.8348 37.7184 41.907C35.8619 42.9795 33.954 43.9603 32.0014 44.846C30.0482 43.9604 28.1395 42.9796 26.2824 41.907H26.2834ZM41.2954 15.907C41.9949 18.312 42.513 20.766 42.8454 23.2485C41.4619 22.3056 40.0443 21.4139 38.5954 20.575C37.1442 19.7396 35.663 18.9572 34.1549 18.2295C36.4734 17.2787 38.8599 16.503 41.2944 15.909L41.2954 15.907ZM44.9999 26.983C46.9848 28.5114 48.8505 30.1886 50.5809 32C48.8503 33.8113 46.9846 35.4884 44.9999 37.017C45.2512 33.677 45.2512 30.3229 44.9999 26.983ZM31.9999 4.125C35.3189 4.125 38.5564 7.8895 40.7574 14.2375C37.7571 14.9834 34.8269 15.9871 31.9994 17.2375C29.1723 15.987 26.2424 14.9832 23.2424 14.2375C25.4439 7.889 28.6809 4.125 31.9999 4.125ZM6.71442 27.712C6.36568 27.3643 6.14833 26.9065 6.09939 26.4165C6.05046 25.9265 6.17298 25.4346 6.44608 25.0249C6.71917 24.6151 7.12592 24.3127 7.59701 24.1693C8.06809 24.0258 8.57435 24.0502 9.02947 24.2383C9.48459 24.4263 9.8604 24.7664 10.0929 25.2005C10.3253 25.6346 10.4 26.1359 10.3042 26.619C10.2084 27.102 9.94807 27.5368 9.56754 27.8494C9.18701 28.162 8.70986 28.3329 8.21742 28.333C7.93818 28.3342 7.66149 28.2799 7.4034 28.1733C7.14531 28.0667 6.91145 27.9099 6.71442 27.712ZM10.9569 23.469C10.5041 23.017 9.9465 22.6842 9.33378 22.5002C8.72105 22.3162 8.07229 22.2867 7.44542 22.4145C7.04142 20.7015 7.17642 19.2395 7.85792 18.0645C9.51942 15.184 14.3959 14.2645 20.9899 15.54C20.1387 18.5116 19.5463 21.5512 19.2194 24.625C16.719 26.4419 14.3829 28.4747 12.2379 30.7C11.7509 30.138 11.2959 29.5793 10.8729 29.024C10.9004 28.998 10.9299 28.974 10.9569 28.9475C11.6827 28.2203 12.0904 27.2349 12.0904 26.2075C12.0904 25.1801 11.6827 24.1947 10.9569 23.4675V23.469ZM7.85692 45.9375C6.19992 43.0615 7.84092 38.377 12.2404 33.3C14.3848 35.526 16.7202 37.5596 19.2199 39.3775C19.5465 42.4511 20.1387 45.4906 20.9899 48.462C14.3954 49.736 9.51892 48.817 7.85792 45.9375H7.85692ZM40.5024 57.02C40.1547 57.3689 39.6967 57.5863 39.2066 57.6353C38.7164 57.6843 38.2245 57.5618 37.8146 57.2886C37.4047 57.0155 37.1022 56.6086 36.9587 56.1374C36.8152 55.6662 36.8396 55.1598 37.0277 54.7046C37.2158 54.2493 37.556 53.8734 37.9902 53.6409C38.4245 53.4084 38.9259 53.3337 39.4091 53.4295C39.8922 53.5254 40.3272 53.7858 40.6398 54.1665C40.9524 54.5471 41.1233 55.0244 41.1234 55.517C41.1236 56.0805 40.9002 56.621 40.5024 57.02ZM39.0024 51.6435C38.265 51.6434 37.5429 51.8539 36.9209 52.2501C36.299 52.6464 35.803 53.2119 35.4914 53.8803C35.1798 54.5486 35.0655 55.2921 35.1618 56.0232C35.2582 56.7543 35.5613 57.4427 36.0354 58.0075C34.7354 59.246 33.3814 59.875 32.0024 59.875C28.6834 59.875 25.4459 56.1105 23.2449 49.7625C26.2452 49.0166 29.1754 48.0129 32.0029 46.7625C34.8306 48.0131 37.7612 49.0169 40.7619 49.7625C40.5169 50.465 40.2619 51.1375 39.9949 51.775C39.6703 51.6883 39.3359 51.6441 38.9999 51.6435H39.0024ZM56.1444 45.9375C54.4829 48.8175 49.6064 49.7375 43.0124 48.462C43.8637 45.4904 44.456 42.4508 44.7829 39.377C47.2817 37.5592 49.6161 35.5258 51.7594 33.3C56.1589 38.377 57.7999 43.0615 56.1419 45.9375H56.1444Z" fill="#FF3233"/>
</svg>
