<svg width="64" height="64" viewBox="0 0 64 64" fill="none" xmlns="http://www.w3.org/2000/svg">
<path d="M53.9536 40.3878L43.0736 44.9842C43.093 44.8484 43.1124 44.7127 43.1124 44.5672C43.1124 42.4533 41.3961 40.7369 39.2821 40.7369H31.447C31.127 40.7369 30.8167 40.669 30.5258 40.5333L23.8833 37.5272C22.837 37.0583 21.7039 36.8138 20.5573 36.8096H15.1464V38.749H20.5573C21.4203 38.749 22.293 38.9333 23.0882 39.2921L29.7306 42.2981C30.2736 42.5406 30.8555 42.6666 31.4567 42.6666H39.2918C40.3391 42.6666 41.1827 43.5199 41.1827 44.5575C41.1827 45.5951 40.3294 46.4484 39.2918 46.4484H29.1391V48.3878H39.2821C39.9512 48.3878 40.5718 48.2036 41.1149 47.903V47.9127L54.7003 42.1624C55.2495 41.9279 55.841 41.8086 56.4381 41.812C57.0352 41.8153 57.6253 41.9412 58.1718 42.1818C59.0252 42.5599 59.7233 43.1709 60.1888 43.966L36.2082 56.6884C34.3755 57.6581 32.1936 57.8521 30.2155 57.2218L18.4821 53.4496L15.1367 53.4012V55.3406H18.0361L29.624 59.0642C30.584 59.3745 31.573 59.5199 32.5718 59.5199C34.1427 59.5199 35.7136 59.1418 37.11 58.3951L62.6615 44.8581L62.3803 44.063C62.0904 43.2517 61.6371 42.5087 61.0482 41.8798C60.4594 41.251 59.7477 40.7497 58.9573 40.4072C57.3476 39.7187 55.573 39.6993 53.9536 40.3878ZM13.0421 56.863V36.2763C13.0421 35.2096 12.1694 34.3369 11.1027 34.3369H1.33789V36.2763H11.1027V56.8727H1.33789V58.8121H11.1027C12.1694 58.8024 13.0421 57.9296 13.0421 56.863Z" fill="#FF3233"/>
<path d="M8.55104 53.8473C8.55053 54.0261 8.51481 54.203 8.44592 54.368C8.37703 54.533 8.27632 54.6828 8.14954 54.8089C8.02275 54.9349 7.87238 55.0348 7.70701 55.1027C7.54163 55.1707 7.3645 55.2054 7.18571 55.2049C7.00692 55.2044 6.82998 55.1687 6.665 55.0998C6.50001 55.0309 6.35021 54.9302 6.22415 54.8034C6.09809 54.6766 5.99823 54.5262 5.93028 54.3609C5.86233 54.1955 5.82762 54.0184 5.82813 53.8396C5.82916 53.4785 5.97358 53.1326 6.22963 52.878C6.48568 52.6234 6.83238 52.481 7.19346 52.482C7.55454 52.483 7.90043 52.6274 8.15502 52.8835C8.40962 53.1395 8.55207 53.4862 8.55104 53.8473ZM24.2795 27.5685L25.3268 28.3443L32.5413 24.3491L39.0674 28.2764L39.6298 28.6061L40.6771 27.8497L39.1062 19.7625L44.8759 14.7588L45.3413 14.3128L44.9341 13.1104L36.7692 12.1019L33.8019 5.08126L33.5304 4.49944L32.9098 4.48975H32.2504L28.7692 11.9661L21.1668 12.6061L20.5171 12.6837L20.1292 13.8958L26.151 19.5104L24.2795 27.5685ZM23.4553 14.3613L29.4868 13.8376L30.0589 13.7697L32.8419 7.79641L35.1983 13.3528L35.4407 13.8861L41.9959 14.691L37.4577 18.6279L37.002 19.0158L38.2626 25.5128L33.065 22.3807L32.5704 22.1188L26.8201 25.3091L28.168 19.491L28.3329 18.8897L23.4553 14.3613Z" fill="#FF3233"/>
<path d="M11.5285 23.9904L10.1225 30.0317L9.92855 30.7298L11.0243 31.5347L17.0655 28.1892L22.3989 31.3892L23.0001 31.7674L24.0764 30.982L22.7576 24.2038L24.1637 22.9916L22.8934 21.5274L21.0219 23.1468L20.7407 23.4765V23.8644L21.6522 28.6838L17.7152 26.308L17.5116 26.1141L16.6873 26.0947L16.4934 26.2886L12.4692 28.5189L13.5552 23.8062V23.2341L9.78309 19.7238L14.3988 19.3165L14.8449 19.3068L15.2522 18.8995L17.3176 14.4583L19.1795 18.851L19.4801 19.4232H20.0231L22.3601 19.7141L22.6025 17.7844L20.731 17.5613L18.2679 11.7432L17.9382 11.1226L16.6001 11.2292L16.4158 11.8013L13.7976 17.4353L7.63036 17.9686L6.8643 18.0074L6.45703 19.4232L6.99036 19.7723L11.5285 23.9904ZM43.4025 17.5613L43.577 19.491L45.4485 19.3165L45.8849 19.2971L46.2922 18.8898L48.3576 14.4486L50.1322 18.628L50.1516 19.4135H51.0631L55.6885 19.9856L52.091 23.108L51.771 23.4474V23.8644L52.6922 28.6741L48.7455 26.308L48.5419 26.1044L47.6885 26.1141L47.514 26.2983L43.5092 28.5189L44.6049 23.8062L44.5952 23.2341L42.1128 20.9165L40.7843 22.3323L42.5588 23.9904L41.1625 30.0317L40.9685 30.6813L42.0255 31.5541L48.1055 28.1892L53.4485 31.3989L54.0498 31.7674L55.1067 30.9723L53.7879 24.2038L58.4522 20.1601C58.7722 19.908 58.9079 19.4813 58.8013 19.0935L58.5782 18.405L51.771 17.571L49.2886 11.7335L48.9976 11.2001L47.8437 11.1613L47.5431 11.6365L44.8279 17.4353L43.4025 17.5613Z" fill="#FF3233"/>
</svg>
