<svg width="80" height="80" viewBox="0 0 80 80" fill="none" xmlns="http://www.w3.org/2000/svg">
<g clip-path="url(#clip0_36684_1580)">
<mask id="mask0_36684_1580" style="mask-type:luminance" maskUnits="userSpaceOnUse" x="0" y="0" width="80" height="80">
<path d="M79.5 79.5V0.5H0.5V79.5H79.5Z" fill="white" stroke="white"/>
</mask>
<g mask="url(#mask0_36684_1580)">
<path d="M30.623 32.7502H30.625C30.9351 32.7502 31.1875 32.4979 31.1875 32.1877C31.1875 31.9899 31.086 31.8161 30.9268 31.7151L30.9209 31.7112C30.8336 31.6549 30.7318 31.6251 30.6279 31.6252H30.625C30.3148 31.6252 30.0625 31.8775 30.0625 32.1877C30.0625 32.3358 30.1184 32.4687 30.2109 32.5686L30.2139 32.5715C30.2659 32.6279 30.3292 32.6726 30.3994 32.7034C30.4699 32.7342 30.5461 32.7504 30.623 32.7502Z" fill="#FF3233" stroke="#FF3233" stroke-width="2"/>
<path d="M40 1.56277V11.8752" stroke="#FF3233" stroke-width="2" stroke-linecap="round" stroke-linejoin="round"/>
<path d="M40 68.125V78.4375" stroke="#FF3233" stroke-width="2" stroke-linecap="round" stroke-linejoin="round"/>
<path d="M10.3574 13.4831L16.9871 20.1128" stroke="#FF3233" stroke-width="2" stroke-linecap="round" stroke-linejoin="round"/>
<path d="M63.0117 61.4502L69.6414 68.0798" stroke="#FF3233" stroke-width="2" stroke-linecap="round" stroke-linejoin="round"/>
<path d="M69.6414 13.4831L63.0117 20.1128" stroke="#FF3233" stroke-width="2" stroke-linecap="round" stroke-linejoin="round"/>
<path d="M16.9871 61.4502L10.3574 68.0798" stroke="#FF3233" stroke-width="2" stroke-linecap="round" stroke-linejoin="round"/>
<path d="M74.3748 40.0001C74.3748 40.0001 60.7108 60.3125 39.9999 60.3125C19.289 60.3125 5.625 40.0001 5.625 40.0001C5.625 40.0001 19.289 19.6876 39.9999 19.6876C60.7108 19.6876 74.3748 40.0001 74.3748 40.0001Z" stroke="#FF3233" stroke-width="2" stroke-linecap="round" stroke-linejoin="round"/>
<path d="M35.5328 28.3219C35.5889 28.3001 35.6453 28.2798 35.7015 28.2594C35.7639 28.236 35.8265 28.2141 35.889 28.1923C35.9453 28.1719 36.0015 28.1532 36.0593 28.1344C36.2302 28.0764 36.4027 28.0233 36.5765 27.9751C36.6718 27.9469 36.7687 27.9204 36.8672 27.8954C36.9703 27.8688 37.0733 27.8438 37.1765 27.8204C37.2734 27.7985 37.3687 27.7766 37.4656 27.7579C37.5437 27.7407 37.6218 27.7251 37.7015 27.711C37.7703 27.6985 37.839 27.686 37.9078 27.6751C37.9451 27.6673 37.9842 27.661 38.0232 27.6563C38.0937 27.6438 38.164 27.6344 38.2343 27.6251C38.2531 27.6219 38.2703 27.6188 38.289 27.6173C38.3484 27.6079 38.4093 27.6001 38.4703 27.5923C38.5359 27.5844 38.6015 27.5766 38.6672 27.5704L38.7609 27.561C38.8281 27.5532 38.8968 27.5469 38.964 27.5423C38.9998 27.5391 39.0359 27.536 39.0717 27.5344C39.117 27.5298 39.164 27.5266 39.2093 27.5251C39.2765 27.5204 39.3451 27.5173 39.4125 27.5141C39.5 27.5094 39.5875 27.5063 39.6765 27.5048C39.7828 27.5016 39.892 27.5001 40 27.5001C46.9031 27.5001 52.4999 33.0969 52.4999 40C52.4999 42.1578 51.9531 44.1875 50.9906 45.9578C50.8466 46.2234 50.6928 46.4834 50.5295 46.7375C50.4296 46.8938 50.3265 47.0469 50.2202 47.1984C50.2093 47.2141 50.1982 47.2281 50.1874 47.2438C49.9596 47.5659 49.7154 47.8762 49.456 48.1734C49.2601 48.4007 49.0558 48.6207 48.8435 48.8328C48.6516 49.0256 48.4531 49.2116 48.2484 49.3906C47.3866 50.1499 46.4238 50.7862 45.3874 51.2813C45.2156 51.3641 45.042 51.4422 44.8654 51.5172C44.4897 51.6759 44.1065 51.8161 43.7171 51.9375C43.325 52.0594 42.9265 52.1625 42.5187 52.2453C41.6899 52.4152 40.846 52.5005 40 52.5C33.0969 52.5 27.5 46.9031 27.5 40C27.5 39.8922 27.5016 39.7844 27.5047 39.6782C27.5062 39.5907 27.5092 39.5047 27.5141 39.4172C27.5183 39.313 27.524 39.2088 27.5313 39.1047C27.5375 39.0297 27.542 38.9547 27.55 38.8797L27.5545 38.825C27.5625 38.736 27.5719 38.6469 27.5828 38.5594V38.5563C27.5936 38.4625 27.6047 38.3688 27.6187 38.275C27.6281 38.2047 27.6375 38.1344 27.65 38.0641C27.6625 37.9704 27.678 37.8797 27.6953 37.7875C27.6983 37.7625 27.7031 37.7391 27.7078 37.7141" stroke="#FF3233" stroke-width="2" stroke-linecap="round" stroke-linejoin="round"/>
<path d="M40 44.6875C37.4156 44.6875 35.3125 42.5844 35.3125 40C35.3125 37.4156 37.4156 35.3125 40 35.3125C42.5844 35.3125 44.6875 37.4156 44.6875 40C44.6875 42.5844 42.5844 44.6875 40 44.6875Z" stroke="#FF3233" stroke-width="2" stroke-linecap="round" stroke-linejoin="round"/>
</g>
</g>
<defs>
<clipPath id="clip0_36684_1580">
<rect width="80" height="80" fill="white"/>
</clipPath>
</defs>
</svg>
