<svg width="80" height="80" viewBox="0 0 80 80" fill="none" xmlns="http://www.w3.org/2000/svg">
<path d="M59.384 42.0001C58.9247 46.4519 56.9521 50.6114 53.7955 53.784C50.6389 56.9566 46.4894 58.9503 42.04 59.4321C41.9504 59.431 41.8615 59.4479 41.7785 59.4816C41.6955 59.5154 41.6201 59.5655 41.5568 59.6289C41.4934 59.6922 41.4434 59.7676 41.4096 59.8506C41.3758 59.9336 41.3589 60.0225 41.36 60.1121V74.6641C41.36 75.0248 41.2167 75.3707 40.9617 75.6257C40.7066 75.8808 40.3607 76.0241 40 76.0241C39.6393 76.0241 39.2934 75.8808 39.0383 75.6257C38.7833 75.3707 38.64 75.0248 38.64 74.6641V69.3841C38.627 69.208 38.5512 69.0425 38.4264 68.9177C38.3016 68.7928 38.1361 68.717 37.96 68.7041C31.9113 68.2146 26.1739 65.8185 21.5736 61.8608C16.9733 57.9031 13.7473 52.5878 12.36 46.6801C12.3084 46.505 12.2925 46.3214 12.3133 46.1401C12.3341 45.9588 12.3912 45.7835 12.4812 45.6248C12.5712 45.466 12.6922 45.3269 12.837 45.2159C12.9818 45.1049 13.1475 45.0241 13.3242 44.9785C13.5009 44.9328 13.685 44.9232 13.8655 44.9502C14.046 44.9772 14.2192 45.0402 14.3748 45.1355C14.5304 45.2308 14.6653 45.3565 14.7713 45.505C14.8773 45.6536 14.9524 45.8219 14.992 46.0001C16.2253 51.303 19.1011 56.0813 23.2095 59.6539C27.3179 63.2264 32.4492 65.411 37.872 65.8961C38.048 65.9841 38.216 65.8961 38.384 65.7281C38.4728 65.6779 38.5446 65.6024 38.5902 65.5112C38.6358 65.42 38.6532 65.3172 38.64 65.2161V60.1121C38.6411 60.0225 38.6242 59.9336 38.5904 59.8506C38.5566 59.7676 38.5066 59.6922 38.4432 59.6289C38.3799 59.5655 38.3045 59.5154 38.2215 59.4816C38.1385 59.4479 38.0496 59.431 37.96 59.4321C33.5318 58.9387 29.3995 56.9656 26.232 53.8321C23.0651 50.6492 21.088 46.4748 20.632 42.0081C20.6061 41.8446 20.524 41.6953 20.3999 41.5858C20.2758 41.4763 20.1174 41.4135 19.952 41.4081H5.4C5.0287 41.4081 4.6726 41.2606 4.41005 40.998C4.1475 40.7355 4 40.3794 4 40.0081C4 39.6368 4.1475 39.2807 4.41005 39.0181C4.6726 38.7556 5.0287 38.6081 5.4 38.6081H10.928C11.093 38.6012 11.2505 38.5378 11.3743 38.4286C11.4981 38.3194 11.5806 38.1709 11.608 38.0081C11.971 31.9684 14.2151 26.1937 18.0256 21.4937C21.8361 16.7937 27.0219 13.4041 32.856 11.8001C33.2093 11.733 33.5749 11.8037 33.8777 11.9976C34.1806 12.1915 34.3978 12.4939 34.4848 12.8428C34.5717 13.1918 34.5219 13.5608 34.3455 13.8741C34.1691 14.1875 33.8794 14.4215 33.536 14.5281C28.3165 15.9355 23.6668 18.9378 20.2362 23.1157C16.8055 27.2936 14.7652 32.4385 14.4 37.8321C14.3774 37.9314 14.3783 38.0347 14.4026 38.1336C14.4269 38.2326 14.4739 38.3245 14.5399 38.4022C14.6059 38.4798 14.689 38.541 14.7828 38.5809C14.8765 38.6208 14.9783 38.6383 15.08 38.6321H19.92C20.0854 38.6267 20.2438 38.5638 20.3679 38.4543C20.492 38.3448 20.5741 38.1955 20.6 38.0321C21.053 33.5721 23.0249 29.4032 26.1853 26.2238C29.3458 23.0445 33.5028 21.0477 37.96 20.5681C38.0496 20.5691 38.1385 20.5523 38.2215 20.5185C38.3045 20.4847 38.3799 20.4347 38.4432 20.3713C38.5066 20.3079 38.5566 20.2325 38.5904 20.1496C38.6242 20.0666 38.6411 19.9777 38.64 19.8881V5.33607C38.64 4.97538 38.7833 4.62946 39.0383 4.37441C39.2934 4.11936 39.6393 3.97607 40 3.97607C40.3607 3.97607 40.7066 4.11936 40.9617 4.37441C41.2167 4.62946 41.36 4.97538 41.36 5.33607V21.8401C41.3691 22.0326 41.3379 22.225 41.2684 22.4048C41.1989 22.5846 41.0925 22.7479 40.9562 22.8843C40.8199 23.0206 40.6566 23.1269 40.4767 23.1965C40.2969 23.266 40.1046 23.2972 39.912 23.2881C25.12 23.2881 17.728 41.4001 28.184 51.8641C38.64 62.3281 56.488 54.8401 56.744 40.0001C56.7419 39.8209 56.7756 39.6431 56.8432 39.4771C56.9107 39.3111 57.0108 39.1603 57.1376 39.0336C57.2643 38.9069 57.4151 38.8068 57.581 38.7392C57.747 38.6716 57.9248 38.6379 58.104 38.6401H74.6C74.9713 38.6401 75.3274 38.7876 75.59 39.0501C75.8525 39.3127 76 39.6688 76 40.0401C76 40.4114 75.8525 40.7675 75.59 41.03C75.3274 41.2926 74.9713 41.4401 74.6 41.4401H69.16C68.9912 41.4333 68.8263 41.4919 68.6996 41.6036C68.573 41.7154 68.4943 41.8717 68.48 42.0401C68.0385 48.1174 65.6882 53.9 61.7646 58.562C57.841 63.2241 52.5447 66.5273 46.632 68.0001C44.848 68.4241 44.232 65.7041 46.032 65.2801C51.3124 63.9672 56.0478 61.0308 59.5712 56.8845C63.0946 52.7383 65.2284 47.5911 65.672 42.1681C65.6946 42.0687 65.6937 41.9655 65.6694 41.8665C65.6451 41.7676 65.5981 41.6756 65.5321 41.598C65.4661 41.5203 65.383 41.4591 65.2892 41.4192C65.1955 41.3793 65.0937 41.3618 64.992 41.3681H60.064C59.8986 41.3735 59.7402 41.4363 59.6161 41.5458C59.492 41.6553 59.41 41.8046 59.384 41.9681V42.0001ZM70.4 19.3761L60.568 29.1521C60.3278 29.4128 59.9942 29.5681 59.64 29.5841H53.088C52.9091 29.5997 52.7365 29.6573 52.584 29.7521L40.936 41.4881C40.6741 41.7328 40.3275 41.8663 39.9691 41.8606C39.6107 41.8549 39.2685 41.7104 39.0145 41.4574C38.7605 41.2045 38.6146 40.8629 38.6074 40.5045C38.6002 40.1462 38.7324 39.799 38.976 39.5361L50.624 27.7921C50.7024 27.7528 50.768 27.6921 50.8133 27.6171C50.8586 27.542 50.8817 27.4557 50.88 27.3681V20.8001C50.8783 20.6109 50.9151 20.4233 50.9879 20.2486C51.0608 20.074 51.1683 19.916 51.304 19.7841L61.08 10.0161C61.2688 9.81199 61.5146 9.66949 61.7855 9.60713C62.0565 9.54477 62.3399 9.56544 62.5989 9.66645C62.8579 9.76746 63.0805 9.94412 63.2376 10.1734C63.3948 10.4027 63.4792 10.6741 63.48 10.9521V16.3121C63.4913 16.4887 63.5666 16.6552 63.6917 16.7803C63.8169 16.9055 63.9834 16.9808 64.16 16.9921H69.432C69.7132 16.9847 69.9901 17.0622 70.2266 17.2145C70.4631 17.3668 70.6483 17.5868 70.7579 17.8458C70.8676 18.1049 70.8967 18.3909 70.8414 18.6667C70.7861 18.9425 70.649 19.1953 70.448 19.3921L70.4 19.3761ZM59.2 26.5761L64.896 20.8801C64.995 20.7886 65.0649 20.6702 65.0971 20.5393C65.1294 20.4085 65.1225 20.2711 65.0773 20.1442C65.0322 20.0172 64.9507 19.9063 64.8431 19.8252C64.7355 19.7442 64.6065 19.6965 64.472 19.6881H62.072C61.7005 19.6968 61.3404 19.559 61.0695 19.3046C60.7986 19.0502 60.6386 18.6994 60.624 18.3281V16.0001C60.6233 15.8623 60.5823 15.7277 60.5058 15.6131C60.4294 15.4984 60.3211 15.4087 60.1942 15.3551C60.0673 15.3014 59.9274 15.2862 59.7919 15.3112C59.6565 15.3363 59.5313 15.4006 59.432 15.4961L53.832 21.1921C53.6825 21.3223 53.5905 21.5063 53.576 21.7041V26.1281C53.5749 26.2177 53.5918 26.3066 53.6256 26.3896C53.6594 26.4726 53.7094 26.5479 53.7728 26.6113C53.8361 26.6747 53.9115 26.7247 53.9945 26.7585C54.0775 26.7923 54.1664 26.8091 54.256 26.8081H58.76C58.936 26.8081 59.104 26.8081 59.184 26.6321L59.2 26.5761ZM51.552 40.0161C51.5552 42.3034 50.8797 44.5403 49.611 46.4436C48.3424 48.347 46.5376 49.8311 44.4251 50.7083C42.3126 51.5855 39.9873 51.8162 37.7436 51.3713C35.4999 50.9264 33.4387 49.8259 31.8207 48.2091C30.2027 46.5922 29.1008 44.5317 28.6543 42.2883C28.2079 40.0449 28.437 37.7195 29.3127 35.6064C30.1884 33.4933 31.6713 31.6875 33.5738 30.4175C35.4762 29.1475 37.7126 28.4705 40 28.4721C40.3437 28.4984 40.6648 28.6536 40.8991 28.9064C41.1333 29.1593 41.2635 29.4914 41.2635 29.8361C41.2635 30.1808 41.1333 30.5128 40.8991 30.7657C40.6648 31.0186 40.3437 31.1737 40 31.2001C37.6661 31.2001 35.4278 32.1272 33.7775 33.7775C32.1271 35.4279 31.2 37.6662 31.2 40.0001C31.2 42.334 32.1271 44.5723 33.7775 46.2226C35.4278 47.8729 37.6661 48.8001 40 48.8001C45.104 48.8001 48.504 44.9761 48.752 40.0001C48.744 39.8071 48.7758 39.6145 48.8455 39.4343C48.9151 39.2541 49.0211 39.0902 49.1568 38.9527C49.2925 38.8152 49.4551 38.7072 49.6344 38.6352C49.8136 38.5633 50.0058 38.529 50.1989 38.5345C50.392 38.54 50.5819 38.5851 50.7568 38.6672C50.9317 38.7492 51.0878 38.8664 51.2155 39.0114C51.3431 39.1563 51.4396 39.326 51.4989 39.5099C51.5582 39.6937 51.579 39.8878 51.56 40.0801L51.552 40.0161Z" fill="#FF3233"/>
</svg>
